<svg width="29" height="27" viewBox="0 0 29 27" fill="none" xmlns="http://www.w3.org/2000/svg">
<path d="M27.7437 13.1554L14.8719 0.292943C14.7792 0.200081 14.6691 0.126408 14.5479 0.0761409C14.4267 0.0258739 14.2968 0 14.1656 0C14.0344 0 13.9045 0.0258739 13.7833 0.0761409C13.6621 0.126408 13.5521 0.200081 13.4594 0.292943L0.5875 13.1554C0.2125 13.5304 0 14.0398 0 14.5711C0 15.6742 0.896875 16.5711 2 16.5711H3.35625V25.7492C3.35625 26.3023 3.80313 26.7492 4.35625 26.7492H12.1656V19.7492H15.6656V26.7492H23.975C24.5281 26.7492 24.975 26.3023 24.975 25.7492V16.5711H26.3312C26.8625 16.5711 27.3719 16.3617 27.7469 15.9836C28.525 15.2023 28.525 13.9367 27.7437 13.1554Z" fill="#C4C4C4"/>
</svg>
